<svg width="536" height="755" viewBox="0 0 536 755" fill="none" xmlns="http://www.w3.org/2000/svg">
<path d="M463.253 414.051L218.581 476.186C217.725 476.403 216.819 476.271 216.06 475.819C215.302 475.367 214.753 474.633 214.536 473.776L146.335 204.416C146.119 203.559 146.252 202.652 146.704 201.893C147.156 201.134 147.89 200.585 148.745 200.366L393.417 138.231C394.273 138.015 395.18 138.147 395.938 138.599C396.697 139.05 397.245 139.785 397.463 140.641L465.663 410.002C465.879 410.858 465.746 411.766 465.294 412.525C464.843 413.284 464.108 413.833 463.253 414.051Z" fill="white"/>
<path d="M463.253 414.051L218.581 476.186C217.725 476.403 216.819 476.271 216.06 475.819C215.302 475.367 214.753 474.633 214.536 473.776L146.335 204.416C146.119 203.559 146.252 202.652 146.704 201.893C147.156 201.134 147.89 200.585 148.745 200.366L393.417 138.231C394.273 138.015 395.18 138.147 395.938 138.599C396.697 139.05 397.245 139.785 397.463 140.641L465.663 410.002C465.879 410.858 465.746 411.766 465.294 412.525C464.843 413.284 464.108 413.833 463.253 414.051ZM149.073 201.658C148.559 201.789 148.119 202.119 147.848 202.574C147.576 203.03 147.497 203.574 147.626 204.088L215.827 473.449C215.957 473.962 216.286 474.403 216.741 474.674C217.196 474.945 217.741 475.024 218.254 474.895L462.926 412.759C463.439 412.628 463.88 412.299 464.151 411.843C464.422 411.388 464.501 410.843 464.372 410.329L396.171 140.969C396.041 140.455 395.712 140.015 395.257 139.743C394.802 139.472 394.258 139.393 393.744 139.523L149.073 201.658Z" fill="#3F3D56"/>
<path d="M277.044 263.405L216.36 278.816C215.504 279.032 214.598 278.9 213.839 278.448C213.081 277.996 212.532 277.262 212.315 276.406L196.941 215.686C196.725 214.83 196.858 213.922 197.31 213.163C197.761 212.404 198.496 211.855 199.351 211.637L260.035 196.226C260.891 196.01 261.798 196.142 262.556 196.594C263.314 197.045 263.863 197.78 264.08 198.636L279.454 259.355C279.67 260.212 279.537 261.119 279.086 261.878C278.634 262.637 277.9 263.186 277.044 263.405ZM199.678 212.929C199.165 213.06 198.724 213.389 198.453 213.845C198.182 214.3 198.103 214.845 198.232 215.358L213.606 276.078C213.737 276.591 214.065 277.032 214.521 277.303C214.976 277.574 215.52 277.653 216.033 277.524L276.717 262.113C277.23 261.982 277.671 261.652 277.942 261.197C278.213 260.741 278.293 260.197 278.163 259.683L262.789 198.964C262.659 198.45 262.33 198.01 261.875 197.738C261.42 197.467 260.876 197.388 260.362 197.518L199.678 212.929Z" fill="#F2F2F2"/>
<path d="M261.494 275.26L200.81 290.671C200.04 290.865 199.224 290.746 198.541 290.34C197.859 289.933 197.365 289.272 197.169 288.502L181.796 227.782C181.601 227.012 181.721 226.195 182.127 225.512C182.534 224.828 183.195 224.334 183.965 224.138L244.649 208.727C245.419 208.532 246.235 208.651 246.918 209.058C247.6 209.465 248.094 210.126 248.29 210.896L263.663 271.615C263.858 272.386 263.738 273.203 263.332 273.886C262.925 274.569 262.264 275.063 261.494 275.26Z" fill="#6C63FF"/>
<path d="M398.132 272.184L208.334 320.384C207.564 320.579 206.747 320.461 206.064 320.054C205.382 319.647 204.888 318.986 204.693 318.215C204.498 317.444 204.617 316.627 205.024 315.943C205.43 315.26 206.092 314.766 206.862 314.57L396.66 266.37C397.042 266.273 397.439 266.253 397.828 266.309C398.218 266.366 398.592 266.498 398.93 266.7C399.268 266.901 399.563 267.167 399.799 267.483C400.034 267.799 400.205 268.158 400.301 268.539C400.398 268.921 400.419 269.318 400.362 269.708C400.305 270.098 400.172 270.472 399.971 270.811C399.769 271.149 399.503 271.445 399.188 271.68C398.873 271.916 398.514 272.087 398.132 272.184Z" fill="#CCCCCC"/>
<path d="M357.366 303.848L213.404 340.408C213.022 340.505 212.626 340.526 212.236 340.469C211.847 340.413 211.472 340.28 211.134 340.079C210.451 339.672 209.958 339.01 209.763 338.239C209.568 337.468 209.687 336.651 210.093 335.968C210.5 335.284 211.162 334.791 211.932 334.595L355.894 298.035C356.276 297.938 356.673 297.917 357.062 297.974C357.452 298.03 357.826 298.163 358.164 298.365C358.502 298.566 358.797 298.832 359.033 299.148C359.268 299.463 359.439 299.822 359.535 300.204C359.632 300.586 359.653 300.983 359.596 301.373C359.539 301.762 359.406 302.137 359.205 302.475C359.004 302.814 358.738 303.109 358.422 303.345C358.107 303.58 357.748 303.752 357.366 303.848Z" fill="#CCCCCC"/>
<path d="M378.842 198.71L294.917 220.022C294.147 220.218 293.33 220.1 292.648 219.693C291.965 219.286 291.472 218.624 291.276 217.853C291.081 217.083 291.2 216.265 291.607 215.582C292.014 214.898 292.675 214.405 293.445 214.209L377.37 192.896C378.14 192.7 378.957 192.819 379.639 193.226C379.978 193.427 380.273 193.693 380.508 194.009C380.743 194.324 380.914 194.683 381.011 195.065C381.107 195.447 381.128 195.844 381.071 196.234C381.015 196.623 380.882 196.998 380.68 197.336C380.479 197.675 380.213 197.97 379.897 198.206C379.582 198.442 379.223 198.613 378.842 198.71Z" fill="#CCCCCC"/>
<path d="M362.967 224.053L299.988 240.047C299.606 240.144 299.209 240.165 298.82 240.108C298.43 240.052 298.056 239.919 297.718 239.717C297.38 239.516 297.085 239.25 296.849 238.934C296.614 238.619 296.443 238.26 296.347 237.878C296.25 237.496 296.229 237.099 296.286 236.71C296.343 236.32 296.476 235.945 296.677 235.607C296.878 235.268 297.144 234.973 297.46 234.737C297.775 234.502 298.134 234.33 298.516 234.234L361.495 218.24C362.266 218.044 363.082 218.163 363.765 218.569C364.448 218.976 364.941 219.638 365.136 220.409C365.331 221.18 365.213 221.997 364.806 222.68C364.399 223.364 363.738 223.857 362.967 224.053Z" fill="#CCCCCC"/>
<path d="M408.272 312.233L218.474 360.433C217.703 360.628 216.887 360.51 216.204 360.103C215.521 359.696 215.028 359.035 214.833 358.264C214.638 357.493 214.757 356.676 215.163 355.992C215.57 355.309 216.231 354.815 217.002 354.619L406.8 306.419C407.57 306.223 408.387 306.342 409.07 306.749C409.753 307.156 410.246 307.817 410.441 308.588C410.636 309.359 410.517 310.176 410.111 310.86C409.704 311.543 409.042 312.037 408.272 312.233Z" fill="#CCCCCC"/>
<path d="M367.507 343.897L223.544 380.457C223.163 380.554 222.766 380.574 222.376 380.518C221.987 380.461 221.612 380.328 221.274 380.127C220.936 379.926 220.641 379.66 220.406 379.344C220.171 379.028 220 378.669 219.903 378.288C219.806 377.906 219.786 377.509 219.843 377.119C219.899 376.729 220.032 376.355 220.233 376.016C220.435 375.678 220.701 375.382 221.016 375.147C221.332 374.911 221.691 374.74 222.072 374.643L366.035 338.083C366.416 337.986 366.813 337.966 367.202 338.022C367.592 338.079 367.966 338.212 368.304 338.413C368.642 338.614 368.938 338.881 369.173 339.196C369.408 339.512 369.579 339.871 369.676 340.252C369.772 340.634 369.793 341.031 369.736 341.421C369.679 341.811 369.547 342.185 369.345 342.524C369.144 342.862 368.878 343.158 368.562 343.393C368.247 343.629 367.888 343.8 367.507 343.897Z" fill="#CCCCCC"/>
<path d="M418.412 352.281L228.614 400.481C228.233 400.578 227.836 400.599 227.446 400.543C227.057 400.486 226.682 400.353 226.344 400.152C226.006 399.95 225.711 399.684 225.476 399.369C225.24 399.053 225.07 398.694 224.973 398.312C224.876 397.931 224.856 397.534 224.912 397.144C224.969 396.754 225.102 396.379 225.303 396.041C225.505 395.703 225.771 395.407 226.086 395.172C226.402 394.936 226.761 394.765 227.142 394.668L416.94 346.468C417.322 346.371 417.718 346.35 418.108 346.407C418.497 346.463 418.872 346.596 419.21 346.798C419.548 346.999 419.843 347.265 420.078 347.581C420.314 347.896 420.485 348.255 420.581 348.637C420.678 349.019 420.698 349.416 420.642 349.805C420.585 350.195 420.452 350.57 420.251 350.908C420.049 351.247 419.783 351.542 419.468 351.778C419.152 352.013 418.794 352.185 418.412 352.281Z" fill="#CCCCCC"/>
<path d="M423.482 372.306L233.684 420.506C233.303 420.603 232.906 420.624 232.517 420.567C232.127 420.51 231.753 420.378 231.415 420.176C231.076 419.975 230.781 419.709 230.546 419.393C230.311 419.078 230.14 418.719 230.043 418.337C229.947 417.955 229.926 417.558 229.983 417.168C230.039 416.779 230.172 416.404 230.374 416.065C230.575 415.727 230.841 415.432 231.157 415.196C231.472 414.96 231.831 414.789 232.212 414.692L422.01 366.492C422.392 366.395 422.789 366.375 423.178 366.431C423.568 366.488 423.942 366.621 424.28 366.822C424.618 367.023 424.913 367.289 425.149 367.605C425.384 367.921 425.555 368.28 425.651 368.661C425.748 369.043 425.769 369.44 425.712 369.83C425.655 370.22 425.522 370.594 425.321 370.933C425.12 371.271 424.854 371.567 424.538 371.802C424.223 372.038 423.864 372.209 423.482 372.306Z" fill="#CCCCCC"/>
<path d="M351.731 423.893C354.754 421.884 357.604 419.626 360.253 417.143C362.632 414.901 365.036 412.462 366.302 409.393C366.872 408.094 367.127 406.68 367.048 405.265C366.968 403.849 366.556 402.473 365.844 401.247C365.147 400.097 364.101 399.198 362.859 398.682C361.618 398.166 360.244 398.059 358.936 398.376C357.612 398.701 356.401 399.379 355.43 400.336C354.459 401.294 353.765 402.497 353.421 403.817C353.097 405.286 353.109 406.81 353.456 408.273C353.803 409.737 354.476 411.103 355.424 412.27C359.221 417.135 366.771 419.114 372.652 417.939C379.275 416.616 384.502 409.668 381.514 403.019C380.893 401.636 378.968 402.427 378.858 403.694C378.69 405.4 379.18 407.105 380.227 408.461C381.273 409.817 382.798 410.722 384.49 410.99C386.181 411.259 387.911 410.871 389.327 409.906C390.743 408.941 391.738 407.472 392.108 405.798L389.729 406.402C391.906 408.228 394.525 409.447 397.322 409.938C400.12 410.429 402.998 410.173 405.666 409.198C406.985 408.719 408.23 408.058 409.366 407.233C410.737 406.219 412.653 405.861 414.278 405.315L425.991 401.375C427.714 400.796 427.03 398.035 425.293 398.619L414.685 402.187C412.918 402.781 411.144 403.36 409.381 403.97C408.122 404.407 407.134 405.412 405.929 406.014C403.656 407.118 401.117 407.553 398.608 407.269C396.099 406.984 393.722 405.992 391.755 404.407C391.579 404.235 391.362 404.111 391.124 404.047C390.886 403.983 390.636 403.981 390.397 404.042C390.158 404.102 389.939 404.223 389.76 404.393C389.582 404.563 389.45 404.776 389.377 405.011C389.202 406.023 388.635 406.925 387.799 407.521C386.962 408.116 385.925 408.357 384.913 408.191C383.9 408.025 382.994 407.465 382.393 406.634C381.791 405.803 381.542 404.767 381.7 403.752L379.044 404.427C380.971 408.716 377.502 413.442 373.471 414.786C368.962 416.288 363.272 415.135 359.493 412.304C358.556 411.646 357.764 410.801 357.168 409.823C356.571 408.845 356.183 407.754 356.027 406.618C355.876 405.59 356.051 404.539 356.527 403.615C357.004 402.691 357.758 401.94 358.684 401.467C359.496 401.024 360.447 400.915 361.338 401.161C362.229 401.407 362.989 401.991 363.457 402.787C363.953 403.707 364.215 404.735 364.22 405.781C364.225 406.826 363.973 407.857 363.487 408.782C362.26 411.394 360.02 413.483 357.94 415.416C355.566 417.617 353.019 419.626 350.326 421.421C348.815 422.431 350.204 424.913 351.731 423.893Z" fill="#6C63FF"/>
<path d="M408.373 479.747C408.701 480.089 409.002 480.456 409.272 480.845L451.714 480.049L456.717 471.024L471.313 476.799L464.008 493.638C463.418 494.999 462.403 496.131 461.115 496.865C459.828 497.598 458.337 497.894 456.867 497.708L408.956 491.637C407.816 493.063 406.27 494.109 404.523 494.634C402.776 495.16 400.91 495.14 399.174 494.579C397.437 494.017 395.913 492.94 394.804 491.49C393.694 490.04 393.052 488.287 392.963 486.463C392.873 484.639 393.341 482.831 394.303 481.28C395.266 479.728 396.677 478.507 398.35 477.778C400.023 477.049 401.878 476.847 403.668 477.198C405.458 477.55 407.099 478.439 408.373 479.747Z" fill="#E49797"/>
<path d="M545.227 738.469L531.275 738.389L524.945 684.486L545.539 684.606L545.227 738.469Z" fill="#E49797"/>
<path d="M548.708 752.026L503.717 751.766L503.72 751.197C503.747 746.549 505.618 742.102 508.921 738.834C512.224 735.566 516.688 733.745 521.332 733.771L521.334 733.771L548.812 733.93L548.708 752.026Z" fill="#2F2E41"/>
<path d="M418.529 737.432L405.73 731.872L421.066 679.814L439.957 688.02L418.529 737.432Z" fill="#E49797"/>
<path d="M416.409 751.267L375.137 733.34L375.364 732.817C377.213 728.554 380.679 725.199 384.999 723.493C389.319 721.786 394.139 721.867 398.4 723.717L398.401 723.717L423.608 734.667L416.409 751.267Z" fill="#2F2E41"/>
<path d="M478.818 491.82L477.715 508.178L507.191 511.506L538.032 514.988L529.091 490.088L478.818 491.82Z" fill="#FFB7B7"/>
<path d="M476.785 508.383L465.786 428.377L485.683 421.977L491.562 414.004L519.937 415.848L524.05 425.214L539.144 432.459L536.57 475.678L538.06 511.854L476.785 508.383Z" fill="#2F2E41"/>
<path d="M469.697 486.919L449.543 478.715L449.631 478.356C449.72 477.993 458.524 442.086 459.698 436.314C460.922 430.301 465.276 428.662 465.461 428.595L465.596 428.546L473.577 431.027L476.929 458.656L469.697 486.919Z" fill="#2F2E41"/>
<path d="M428.976 728.024L402.118 722.35L445.776 603.91L460.717 563.512C460.717 563.512 470.233 531.107 474.52 518.57L477.16 501.73L537.336 508.746C537.336 508.746 554.011 533.561 548.671 573.822L550.113 725.269L523.216 726.495L501.569 573.637L461.559 657.135C461.559 657.135 448.895 692.792 439.936 700.485L428.976 728.024Z" fill="#2F2E41"/>
<path d="M513.156 514.229C513.63 514.22 514.103 514.249 514.572 514.315L542.846 482.626L539.635 472.818L553.79 466.033L561.162 482.843C561.757 484.201 561.897 485.715 561.559 487.159C561.221 488.603 560.424 489.898 559.288 490.851L522.264 521.885C522.535 523.691 522.249 525.536 521.446 527.176C520.643 528.816 519.361 530.172 517.769 531.064C516.177 531.956 514.351 532.343 512.535 532.171C510.718 532 508.997 531.279 507.6 530.104C506.203 528.93 505.196 527.358 504.713 525.597C504.231 523.835 504.295 521.969 504.899 520.246C505.502 518.522 506.615 517.024 508.09 515.949C509.565 514.874 511.332 514.274 513.156 514.229Z" fill="#E49797"/>
<path d="M540.586 485.713L529.026 458.059L533.707 438.87L538.667 432.672C539.028 432.519 539.418 432.444 539.81 432.45C540.202 432.456 540.589 432.543 540.946 432.706C542.758 433.448 544.291 435.699 545.504 439.397L556.307 470.766L540.586 485.713Z" fill="#2F2E41"/>
<path d="M480.258 403.717L480.377 382.919C480.42 375.528 483.394 368.457 488.646 363.26C493.899 358.064 500.998 355.168 508.383 355.211C515.768 355.253 522.834 358.23 528.026 363.486C533.218 368.742 536.112 375.848 536.069 383.239L535.95 404.037C535.943 405.029 535.543 405.978 534.838 406.676C534.133 407.374 533.18 407.763 532.188 407.759L483.977 407.482C482.985 407.475 482.037 407.075 481.34 406.369C480.643 405.663 480.254 404.71 480.258 403.717Z" fill="#2F2E41"/>
<path d="M502.363 407.103C513.638 407.168 522.831 398.073 522.896 386.788C522.961 375.504 513.873 366.303 502.598 366.239C491.323 366.174 482.13 375.269 482.065 386.554C482 397.838 491.088 407.039 502.363 407.103Z" fill="#E49797"/>
<path d="M473.78 384.546C473.82 378.701 476.175 373.111 480.329 369.002C484.482 364.893 490.094 362.6 495.934 362.627L500.09 362.651C505.93 362.691 511.516 365.048 515.622 369.204C519.727 373.361 522.018 378.978 521.991 384.822L521.989 385.238L513.205 385.188L510.258 376.775L509.611 385.167L505.071 385.141L503.584 380.897L503.258 385.131L473.778 384.962L473.78 384.546Z" fill="#2F2E41"/>
<path d="M500.338 409.915C499.929 409.354 499.686 408.688 499.639 407.995C499.591 407.302 499.739 406.61 500.068 405.997C504.52 397.639 510.775 382.182 502.645 372.582L502.061 371.892L525.823 372.028L525.618 407.733L504.01 411.421C503.791 411.459 503.57 411.477 503.348 411.476C502.758 411.472 502.178 411.329 501.655 411.058C501.132 410.786 500.681 410.395 500.338 409.915Z" fill="#2F2E41"/>
<path d="M221.328 724.845L233.912 729.427L257.563 683.029L238.99 676.266L221.328 724.845Z" fill="#FFB8B8"/>
<path d="M213.679 735.885L219.613 719.564L244.396 728.589C248.582 730.119 251.99 733.247 253.873 737.289C255.757 741.33 255.962 745.955 254.443 750.147L254.256 750.661L213.679 735.885Z" fill="#2F2E41"/>
<path d="M303.256 737.798L316.647 737.874L323.315 686.217L303.55 686.105L303.256 737.798Z" fill="#FFB8B8"/>
<path d="M299.865 733.402L326.237 733.553L326.238 733.553C328.445 733.565 330.628 734.013 332.662 734.87C334.696 735.727 336.542 736.976 338.094 738.547C339.645 740.118 340.873 741.979 341.705 744.025C342.538 746.07 342.961 748.26 342.948 750.469L342.945 751.016L299.766 750.769L299.865 733.402Z" fill="#2F2E41"/>
<path d="M274.632 407.363L280.522 395.88C280.522 395.88 302.186 401.444 304.086 414.04L274.632 407.363Z" fill="#F1F1F1"/>
<path d="M249.847 538.915L265.177 627.458L222.697 701.648L247.763 711.631L290.776 639.725L296.35 620.079L299.037 722.857L321.699 722.298L332.637 626.406L316.487 537.111L249.847 538.915Z" fill="#2F2E41"/>
<path d="M279.791 559.997C256.524 559.864 241.777 555.325 241.447 555.253L240.912 555.135L253.353 498.971L254.196 447.104C254.322 425.123 268.87 409.001 270.885 407.517C271.23 406.184 271.862 404.943 272.736 403.881C273.61 402.818 274.706 401.959 275.946 401.364C280.78 399.202 286.657 401.863 286.904 401.978L304.551 408.715L304.633 408.961C304.842 409.591 327.696 486.257 327.696 486.257C327.696 486.257 325.903 553.118 325.399 555.306C325.399 555.306 292.718 560.071 279.791 559.997Z" fill="#3F3D56"/>
<path d="M298.631 392.357C311.832 392.433 322.595 381.784 322.671 368.572C322.746 355.36 312.106 344.589 298.906 344.513C285.705 344.437 274.942 355.086 274.866 368.298C274.79 381.51 285.43 392.281 298.631 392.357Z" fill="#FFB8B8"/>
<path opacity="0.2" d="M271.641 451.447L313.123 510.079L319.454 482.846L271.641 451.447Z" fill="black"/>
<path d="M402.517 491.93C401.336 492.854 399.966 493.508 398.505 493.845C397.044 494.182 395.526 494.195 394.06 493.882C392.593 493.569 391.213 492.938 390.016 492.033C388.82 491.128 387.836 489.972 387.134 488.646L351.108 494.205L359.005 476.973L392.005 474.336C394.31 473.304 396.913 473.153 399.32 473.914C401.728 474.674 403.774 476.291 405.069 478.46C406.365 480.629 406.821 483.198 406.351 485.68C405.88 488.163 404.516 490.386 402.517 491.93Z" fill="#FFB8B8"/>
<path d="M360.864 476L373.804 474.805L377.285 492.881L361.009 493.076L360.864 476Z" fill="#F1F1F1"/>
<path d="M371.333 499.139L308.027 493.131L276.337 442.043L276.241 441.592C275.357 437.429 276.018 433.086 278.099 429.374C280.181 425.662 283.541 422.835 287.552 421.421C291.564 420.007 295.952 420.102 299.899 421.689C303.845 423.276 307.079 426.247 308.998 430.046L327.561 466.804L365.418 472.754L371.333 499.139Z" fill="#3F3D56"/>
<path d="M278.29 389.088L298.125 389.914C299.334 389.965 302.691 376.922 303.136 374.215C303.485 372.453 304.464 370.878 305.889 369.785C307.314 368.693 309.087 368.156 310.878 368.277C312.362 368.425 316.123 365.67 320.006 362.404C327.379 356.204 327.064 344.478 319.035 339.157C318.816 339.012 318.6 338.879 318.389 338.758C313.321 335.881 307.379 334.891 301.554 334.784C296.273 334.688 290.838 335.322 286.171 337.797C277.804 342.235 273.309 352.01 272.865 361.477C272.42 370.943 275.4 380.219 278.791 389.067" fill="#2F2E41"/>
</svg>
