<svg width="405" height="382" viewBox="0 0 405 382" fill="none" xmlns="http://www.w3.org/2000/svg">
<g clip-path="url(#clip0_63_37)">
<path d="M294.032 216.77V322.294L311.654 351.061L312.995 353.249H382.525L383.93 216.77H294.032Z" fill="#E6E6E6"/>
<path opacity="0.1" d="M294.032 216.77V322.294L311.654 351.061L312.735 216.77H294.032Z" fill="black"/>
<path d="M126.175 213.955V319.481L108.553 348.247L107.212 350.434H37.6817L36.2769 213.955H126.175Z" fill="#E6E6E6"/>
<path opacity="0.1" d="M126.175 213.955V319.481L108.553 348.247L107.472 213.955H126.175Z" fill="black"/>
<path d="M405 211.845V218.176H27.1467V209.031L62.2631 190.74H374.098L405 211.845Z" fill="#E6E6E6"/>
<path opacity="0.1" d="M405 211.845V218.176H27.1467V209.031L405 211.845Z" fill="black"/>
<path d="M81.2262 243.502H64.3699L57.3467 238.578H88.9517L81.2262 243.502Z" fill="#3F3D56"/>
<path d="M81.2262 263.904H64.3699L57.3467 258.979H88.9517L81.2262 263.904Z" fill="#3F3D56"/>
<path d="M81.2262 292.748H64.3699L57.3467 287.823H88.9517L81.2262 292.748Z" fill="#3F3D56"/>
<path d="M81.2262 321.591H64.3699L57.3467 316.667H88.9517L81.2262 321.591Z" fill="#3F3D56"/>
<path d="M338.981 246.316H355.837L362.86 241.392H331.255L338.981 246.316Z" fill="#3F3D56"/>
<path d="M338.981 266.718H355.837L362.86 261.793H331.255L338.981 266.718Z" fill="#3F3D56"/>
<path d="M338.981 295.562H355.837L362.86 290.637H331.255L338.981 295.562Z" fill="#3F3D56"/>
<path d="M338.981 324.405H355.837L362.86 319.48H331.255L338.981 324.405Z" fill="#3F3D56"/>
<path d="M350.46 68.7107H208.556C207.851 68.7106 207.153 68.8496 206.502 69.1197C205.851 69.3898 205.259 69.7858 204.761 70.285C204.263 70.7841 203.867 71.3768 203.598 72.029C203.328 72.6812 203.189 73.3803 203.189 74.0863V169.836C203.189 170.542 203.328 171.241 203.598 171.893C203.867 172.545 204.263 173.138 204.761 173.637C205.259 174.136 205.851 174.532 206.502 174.802C207.153 175.072 207.851 175.211 208.556 175.211H262.424L260.406 188.118C260.406 188.118 248.872 194.255 256.982 194.435C265.091 194.616 303.295 194.435 303.295 194.435C303.295 194.435 310.684 194.435 298.97 187.937L297.072 175.211H350.46C351.164 175.211 351.862 175.072 352.513 174.802C353.165 174.532 353.756 174.136 354.255 173.637C354.753 173.138 355.148 172.545 355.418 171.893C355.688 171.241 355.826 170.542 355.826 169.836V74.0863C355.826 73.3803 355.688 72.6813 355.418 72.029C355.148 71.3768 354.753 70.7841 354.255 70.285C353.756 69.7858 353.165 69.3898 352.513 69.1197C351.862 68.8496 351.164 68.7106 350.46 68.7107Z" fill="#3F3D56"/>
<path d="M350.69 74.3967H208.325V154.182H350.69V74.3967Z" fill="#F2F2F2"/>
<path d="M279.508 72.7721C280.005 72.7721 280.409 72.368 280.409 71.8696C280.409 71.3711 280.005 70.967 279.508 70.967C279.01 70.967 278.607 71.3711 278.607 71.8696C278.607 72.368 279.01 72.7721 279.508 72.7721Z" fill="#F2F2F2"/>
<path d="M279.508 171.33C281.399 171.33 282.932 169.795 282.932 167.9C282.932 166.006 281.399 164.471 279.508 164.471C277.617 164.471 276.084 166.006 276.084 167.9C276.084 169.795 277.617 171.33 279.508 171.33Z" fill="#F2F2F2"/>
<path d="M274.172 204.183V205.988H177.22V204.544L177.353 204.183L179.743 197.685H272.19L274.172 204.183Z" fill="#3F3D56"/>
<path d="M311.483 202.416C311.306 203.172 310.639 203.97 309.133 204.724C303.726 207.432 292.734 204.002 292.734 204.002C292.734 204.002 284.264 202.558 284.264 198.768C284.502 198.604 284.75 198.457 285.006 198.325C287.279 197.121 294.816 194.149 308.178 198.451C309.163 198.761 310.042 199.338 310.718 200.118C311.018 200.414 311.244 200.776 311.376 201.175C311.509 201.574 311.546 201.999 311.483 202.416Z" fill="#3F3D56"/>
<path opacity="0.1" d="M311.483 202.416C304.865 204.955 298.967 205.145 292.914 200.934C290.625 199.239 287.853 198.324 285.006 198.325C287.279 197.121 294.816 194.149 308.178 198.451C309.163 198.761 310.042 199.338 310.718 200.118C311.018 200.414 311.243 200.776 311.376 201.175C311.509 201.574 311.546 201.999 311.483 202.416Z" fill="black"/>
<path d="M303.186 200.934C304.48 200.934 305.528 200.61 305.528 200.212C305.528 199.813 304.48 199.49 303.186 199.49C301.892 199.49 300.843 199.813 300.843 200.212C300.843 200.61 301.892 200.934 303.186 200.934Z" fill="#F2F2F2"/>
<path opacity="0.1" d="M274.172 204.183V205.988H177.22V204.544L177.353 204.183H274.172Z" fill="black"/>
<path d="M53.9068 9.27225e-06C52.9228 -0.0809127 51.9375 0.139557 51.0815 0.632205C50.241 1.20878 49.7112 2.21889 49.1704 3.15886C47.1029 6.79563 44.3038 9.96267 40.9505 12.4593C38.5081 14.2516 35.4029 16.4863 35.8208 19.7908C36.0413 20.882 36.4437 21.9283 37.0113 22.8856C39.2645 27.4415 45.413 30.9623 44.8083 36.161C47.0468 32.4071 44.0526 30.5509 46.2912 26.7971C47.3572 25.0094 49.2092 22.9914 50.8187 24.1141C51.3577 24.49 51.7116 25.1642 52.2727 25.494C53.6116 26.2811 55.0361 24.7764 56.2213 23.7107C60.3083 20.0357 66.1204 20.9985 71.2063 22.1435C73.6073 22.6841 76.2445 23.3933 77.6639 25.6919C79.53 28.7141 75.8909 31.9782 74.9714 35.3951C74.8963 35.6862 74.8928 35.9912 74.9611 36.284C75.0293 36.5769 75.1674 36.8488 75.3635 37.0765C75.5595 37.3042 75.8077 37.481 76.0868 37.5917C76.3659 37.7024 76.6677 37.7437 76.9662 37.7122C78.4923 37.5614 80.3 37.4378 80.3903 36.767C82.3103 36.8355 84.6629 36.6177 85.4855 34.6151C85.7369 33.8228 85.8699 32.9975 85.8799 32.1662C86.1818 28.8023 87.6072 25.7335 88.5514 22.5318C89.4956 19.3302 89.9062 15.5782 88.3127 12.7396C87.744 11.7951 87.0407 10.9389 86.225 10.198C77.1824 1.43254 65.2934 -0.013002 53.9068 9.27225e-06Z" fill="#2F2E41"/>
<path d="M46.7748 42.7275C46.7748 42.7275 48.7414 59.1432 41.5305 60.4565C34.3196 61.7698 48.0859 84.0952 48.0859 84.0952L80.8628 88.035L72.9963 61.7698C72.9963 61.7698 67.752 59.7999 71.0297 46.6673C74.3074 33.5347 46.7748 42.7275 46.7748 42.7275Z" fill="#FFB8B8"/>
<path d="M26.781 324.75L29.4034 360.865H43.1692L39.2364 324.75H26.781Z" fill="#FFB8B8"/>
<path d="M127.734 256.461L129.7 286.665L144.778 280.099L138.878 255.147L127.734 256.461Z" fill="#FFB8B8"/>
<path d="M16.948 186.858C16.948 186.858 17.6035 224.942 21.5368 237.418C25.47 249.894 24.8145 250.551 24.1589 252.521C23.5034 254.491 22.8479 253.178 22.8479 256.461C22.8479 259.744 21.5368 311.618 22.8479 316.214C24.1589 320.81 18.9146 328.69 22.8479 329.347C26.7811 330.003 45.1361 329.347 45.7917 325.407C46.4472 321.467 40.5474 320.154 43.1695 317.527C45.7917 314.901 49.7249 261.057 49.7249 261.057L58.9024 223.629L75.9464 203.93H112.001L123.145 247.268C123.145 247.268 118.556 259.744 121.834 259.744C125.112 259.744 144.778 263.684 144.778 249.238C144.778 234.792 138.222 192.111 136.911 190.798C135.6 189.484 137.567 184.888 135.6 182.918C133.634 180.948 110.69 167.159 102.168 164.532C93.6459 161.906 81.691 158.78 81.691 158.78L16.948 186.858Z" fill="#2F2E41"/>
<path d="M144.778 274.846C144.778 274.846 134.945 271.563 130.356 281.413C125.767 291.262 127.734 293.889 127.734 293.889C127.734 293.889 142.811 299.142 145.433 296.515C146.574 295.372 150.197 294.975 153.926 294.892C159.605 294.764 161.116 286.716 155.752 284.841C155.592 284.786 155.43 284.737 155.266 284.696C150.022 283.383 144.778 274.846 144.778 274.846Z" fill="#2F2E41"/>
<path d="M61.5245 53.5619C72.3858 53.5619 81.1906 44.7424 81.1906 33.863C81.1906 22.9836 72.3858 14.1641 61.5245 14.1641C50.6632 14.1641 41.8584 22.9836 41.8584 33.863C41.8584 44.7424 50.6632 53.5619 61.5245 53.5619Z" fill="#FFB8B8"/>
<path d="M35.9585 68.6643C35.9585 68.6643 68.0798 75.2306 75.9463 64.7245C83.8127 54.2185 87.0904 94.2729 87.0904 94.2729L91.0236 136.297L85.1238 159.279C85.1238 159.279 54.3136 184.231 44.4805 186.201C34.6474 188.171 19.5701 189.484 19.5701 189.484C19.5701 189.484 24.1589 116.598 24.1589 115.285C24.1589 113.972 35.9585 68.6643 35.9585 68.6643Z" fill="#6C63FF"/>
<path d="M45.7275 56.3493C45.7275 56.3493 38.5808 52.2484 36.6142 56.1882C34.6476 60.128 16.2925 69.9775 14.3259 69.9775C12.3593 69.9775 18.2591 124.478 15.637 131.044C13.0148 137.61 0.559624 185.544 7.77053 189.484C14.9814 193.424 9.73714 185.544 16.9481 195.394C24.159 205.243 59.558 205.243 61.5246 201.304C63.4912 197.364 45.7917 167.815 49.0694 140.237C52.3471 112.658 57.5914 74.5739 53.0026 69.3208C48.4138 64.0678 45.7275 56.3493 45.7275 56.3493Z" fill="#2F2E41"/>
<path d="M69.3911 60.7848L70.3042 57.6372C70.3042 57.6372 97.5792 66.6945 98.8903 72.6041C100.201 78.5138 99.5458 119.882 94.9571 123.165C90.3683 126.448 83.8129 131.701 88.4017 139.58C92.9905 147.46 98.2347 155.996 102.168 156.653C106.101 157.309 113.312 161.906 111.346 166.502C109.379 171.099 85.7795 162.562 85.7795 162.562C85.7795 162.562 70.0467 150.743 70.7022 132.357C71.3577 113.972 69.3911 60.7848 69.3911 60.7848Z" fill="#2F2E41"/>
<path d="M92.3349 138.267L76.602 167.815C76.602 167.815 53.6582 191.454 66.7689 194.081C79.8797 196.707 87.0906 172.412 87.0906 172.412L104.135 148.117L92.3349 138.267Z" fill="#FFB8B8"/>
<path d="M54.8648 5.15432C54.0721 5.09548 53.2781 5.24974 52.5649 5.60115C51.92 6.07292 51.3885 6.68305 51.0092 7.38697C49.2607 10.0215 46.9815 12.2606 44.3179 13.9605C42.3297 15.2273 39.8019 16.8067 40.1421 19.1423C40.3268 19.9254 40.6554 20.6671 41.1112 21.3297C42.9517 24.5823 43.6844 28.347 43.1984 32.0539L48.6654 24.0943C49.5332 22.8308 51.0408 21.4045 52.3511 22.198C52.7898 22.4637 53.0778 22.9402 53.5346 23.1733C54.6246 23.7296 55.7842 22.6662 56.749 21.9129C60.076 19.3154 64.8073 19.9959 68.9474 20.8052C70.9019 21.1873 73.0487 21.6886 74.2041 23.3132C76.1242 26.0131 74.1193 29.9142 75.2399 33.0332C75.5536 32.8132 75.82 32.5323 76.0233 32.2073C76.2266 31.8823 76.3627 31.5197 76.4235 31.141C77.9865 31.1894 79.9016 31.0355 80.5713 29.62C80.7749 29.0653 80.8835 28.4801 80.8923 27.8891C81.1381 25.5116 82.2983 23.3425 83.067 21.0797C83.8356 18.8168 84.1699 16.1648 82.8727 14.1585C82.3982 13.4788 81.8254 12.8734 81.1733 12.3622C73.8122 6.16681 64.134 5.14512 54.8648 5.15432Z" fill="#2F2E41"/>
<path d="M92.3349 69.9775L98.4426 71.6014C98.4426 71.6014 112.657 108.062 109.379 133.014C106.101 157.966 104.135 152.713 104.135 152.713C104.135 152.713 98.8903 140.894 87.0906 143.52L92.3349 69.9775Z" fill="#2F2E41"/>
<path d="M27.6892 356.092C26.1084 358.244 26.4254 361.32 25.0251 363.593C23.8113 365.564 21.5238 366.598 20.0056 368.344C19.5211 368.924 19.0893 369.547 18.7151 370.204C17.3067 372.567 16.162 375.595 17.549 377.971C18.6648 379.882 21.0102 380.629 23.1611 381.138C25.8798 381.781 28.7046 382.296 31.4546 381.804C34.2047 381.313 36.8924 379.626 37.873 377.006C38.0657 376.347 38.2948 375.699 38.5592 375.066C40.0498 372.127 44.7251 372.095 46.2506 369.174C47.3182 367.129 46.3368 364.658 45.3559 362.571L42.3599 356.195C41.3656 354.079 37.3351 355.296 35.2339 354.789C32.4934 354.128 29.6607 353.399 27.6892 356.092Z" fill="#2F2E41"/>
<path d="M5.80396 151.4L33.3365 194.081C33.3365 194.081 50.3805 215.749 55.6248 205.9C60.8691 196.05 37.2697 179.635 37.2697 179.635L19.5702 146.803L5.80396 151.4Z" fill="#FFB8B8"/>
<path d="M19.5701 71.2908L14.3258 69.9775C14.3258 69.9775 3.83724 73.2607 1.21509 87.0499C-1.40705 100.839 0.559551 155.996 3.83724 156.653C7.11492 157.309 20.0257 147.049 22.0923 149.224C24.1589 151.4 17.6035 140.237 19.5701 134.327C21.5367 128.418 19.5701 71.2908 19.5701 71.2908Z" fill="#2F2E41"/>
<path d="M266.033 100.601H249.09V104.687H266.033V100.601Z" fill="#6C63FF"/>
<path d="M324.706 100.601H318.745V104.687H324.706V100.601Z" fill="#6C63FF"/>
<path d="M336.629 100.601H330.668V104.687H336.629V100.601Z" fill="#6C63FF"/>
<path d="M312.47 100.601H271.995V104.687H312.47V100.601Z" fill="#6C63FF"/>
<path d="M244.697 127.001H227.754V131.086H244.697V127.001Z" fill="#6C63FF"/>
<path d="M303.371 127.001H297.409V131.086H303.371V127.001Z" fill="#6C63FF"/>
<path d="M315.293 127.001H309.332V131.086H315.293V127.001Z" fill="#6C63FF"/>
<path d="M291.134 127.001H250.659V131.086H291.134V127.001Z" fill="#6C63FF"/>
<path d="M314.666 109.715H297.723V113.801H314.666V109.715Z" fill="#6C63FF"/>
<path d="M337.57 109.715H320.627V113.801H337.57V109.715Z" fill="#6C63FF"/>
<path d="M233.716 109.715H227.754V113.801H233.716V109.715Z" fill="#6C63FF"/>
<path d="M245.639 109.715H239.677V113.801H245.639V109.715Z" fill="#6C63FF"/>
<path d="M292.075 109.715H251.6V113.801H292.075V109.715Z" fill="#6C63FF"/>
<path d="M279.525 118.515H262.582V122.601H279.525V118.515Z" fill="#6C63FF"/>
<path d="M256.62 118.515H239.677V122.601H256.62V118.515Z" fill="#6C63FF"/>
<path d="M233.716 118.515H227.754V122.601H233.716V118.515Z" fill="#6C63FF"/>
<path d="M337.571 118.515H331.609V122.601H337.571V118.515Z" fill="#6C63FF"/>
<path d="M325.648 118.515H285.173V122.601H325.648V118.515Z" fill="#6C63FF"/>
</g>
<defs>
<clipPath id="clip0_63_37">
<rect width="405" height="382" fill="white"/>
</clipPath>
</defs>
</svg>
